<?xml version="1.0" standalone="no"?><!DOCTYPE svg PUBLIC "-//W3C//DTD SVG 1.1//EN" "http://www.w3.org/Graphics/SVG/1.1/DTD/svg11.dtd"><svg width="100%" height="100%" viewBox="0 0 65 30" version="1.1" xmlns="http://www.w3.org/2000/svg" xmlns:xlink="http://www.w3.org/1999/xlink" xml:space="preserve" style="fill-rule:evenodd;clip-rule:evenodd;stroke-linecap:round;stroke-linejoin:round;stroke-miterlimit:1.41421;"><g><path d="M62.453,12.838c0,-0.401 -0.268,-0.726 -0.598,-0.726l-1.196,0c-0.33,0 -0.598,0.325 -0.598,0.726l0,3.969c0,0.4 0.268,0.725 0.598,0.725l1.196,0c0.33,0 0.598,-0.325 0.598,-0.725l0,-3.969l0,0Z" style="fill:#000;stroke-width:0.92px;stroke:#000;"/><path d="M60.035,5.913c0,-1.388 -0.929,-2.515 -2.074,-2.515l-53.979,0c-1.144,0 -2.074,1.127 -2.074,2.515l0,19.029c0,1.388 0.93,2.516 2.074,2.516l53.979,0c1.145,0 2.074,-1.128 2.074,-2.516l0,-19.029l0,0Z" style="fill:none;stroke-width:0.92px;stroke:#000;"/><path d="M41.06,5.442l-35.9,0c-1.011,0 -1.834,0.752 -1.834,1.677l0,17.034c0,0.93 0.823,1.678 1.834,1.678l35.9,0c1.012,0 1.834,-0.748 1.834,-1.678l0,-17.034c0,-0.925 -0.822,-1.677 -1.834,-1.677l0,0Z" style="fill:#000;fill-rule:nonzero;"/></g></svg>