<?xml version="1.0" standalone="no"?><!DOCTYPE svg PUBLIC "-//W3C//DTD SVG 1.1//EN" "http://www.w3.org/Graphics/SVG/1.1/DTD/svg11.dtd"><svg width="100%" height="100%" viewBox="0 0 84 100" version="1.1" xmlns="http://www.w3.org/2000/svg" xmlns:xlink="http://www.w3.org/1999/xlink" xml:space="preserve" style="fill-rule:evenodd;clip-rule:evenodd;stroke-linejoin:round;stroke-miterlimit:1.41421;"><path d="M29.129,56.193c0.238,10.055 6.134,13.195 12.437,13.282c7.194,0.098 13.027,-3.484 12.236,-13.511c-0.773,-9.786 -5.096,-12.374 -12.072,-12.653c-6.969,-0.278 -12.773,5.633 -12.601,12.882ZM6.432,97.869l70.597,0c5.46,0 6.229,-1.108 6.229,-8.982l0,-68.861c0,-7.371 -0.789,-8.982 -6.229,-8.982l-13.607,0.026c0,-7.696 -1.105,-9.175 -13.386,-9.008l-16.611,0c-13.518,-0.006 -14.891,1.125 -14.891,8.668l-12.102,0.314c-5.357,0 -6.229,2.073 -6.229,8.982l0,68.861c0,7.783 0.789,8.982 6.229,8.982ZM19.047,56.193c0,-15.479 11.949,-23.4 22.683,-23.4c10.735,0 22.079,7.085 22.079,22.564c0,15.478 -11.458,24.049 -22.192,24.049c-10.735,0 -22.57,-7.734 -22.57,-23.213Z" style="fill:#989898;"/></svg>