<?xml version="1.0" standalone="no"?><!DOCTYPE svg PUBLIC "-//W3C//DTD SVG 1.1//EN" "http://www.w3.org/Graphics/SVG/1.1/DTD/svg11.dtd"><svg width="100%" height="100%" viewBox="0 0 500 500" version="1.1" xmlns="http://www.w3.org/2000/svg" xmlns:xlink="http://www.w3.org/1999/xlink" xml:space="preserve" style="fill-rule:evenodd;clip-rule:evenodd;stroke-linecap:round;stroke-linejoin:round;stroke-miterlimit:1.41421;"><path d="M475.643,107.658c0,-26.04 -21.142,-47.181 -47.182,-47.181l-355.091,0c-26.04,0 -47.182,21.141 -47.182,47.181l0,271.384c0,26.04 21.142,47.182 47.182,47.182l355.091,0c26.04,0 47.182,-21.142 47.182,-47.182l0,-271.384Z" style="fill:none;stroke-width:48px;stroke:#989898;"/><g><g><path d="M179.131,263.087l0,-20.13l48.872,-0.117l0,63.667c-7.489,8.895 -15.235,15.585 -23.236,20.072c-8.001,4.486 -16.227,6.729 -24.676,6.729c-11.266,0 -21.316,-3.433 -30.149,-10.299c-8.834,-6.866 -15.827,-16.892 -20.98,-30.078c-5.153,-13.186 -7.729,-29.025 -7.729,-47.516c0,-18.726 2.592,-35.032 7.777,-48.921c5.185,-13.888 11.97,-24.128 20.356,-30.721c8.385,-6.593 18.307,-9.89 29.765,-9.89c8.449,0 15.842,1.912 22.179,5.735c6.338,3.823 11.554,9.246 15.651,16.268c4.097,7.022 7.169,16.658 9.218,28.908l-13.731,5.617c-1.856,-9.675 -4.192,-16.911 -7.009,-21.71c-2.816,-4.798 -6.529,-8.563 -11.138,-11.294c-4.609,-2.73 -9.793,-4.096 -15.554,-4.096c-8.386,0 -15.603,2.477 -21.652,7.432c-6.049,4.954 -10.914,12.659 -14.595,23.114c-3.68,10.455 -5.52,23.212 -5.52,38.271c0,22.938 3.936,40.123 11.81,51.553c7.873,11.431 18.115,17.146 30.725,17.146c6.017,0 12.178,-1.756 18.483,-5.267c6.305,-3.511 11.314,-7.685 15.026,-12.522l0,-31.951l-33.893,0Z" style="fill:#989898;fill-rule:nonzero;"/><rect x="253.159" y="158.809" width="15.267" height="171.573" style="fill:#989898;fill-rule:nonzero;"/><path d="M296.175,330.382l0,-171.573l77.869,0l0,20.247l-62.603,0l0,53.134l54.153,0l0,20.247l-54.153,0l0,77.945l-15.266,0Z" style="fill:#989898;fill-rule:nonzero;"/></g></g></svg>