<?xml version="1.0" standalone="no"?><!DOCTYPE svg PUBLIC "-//W3C//DTD SVG 1.1//EN" "http://www.w3.org/Graphics/SVG/1.1/DTD/svg11.dtd"><svg width="100%" height="100%" viewBox="0 0 100 100" version="1.1" xmlns="http://www.w3.org/2000/svg" xmlns:xlink="http://www.w3.org/1999/xlink" xml:space="preserve" style="fill-rule:evenodd;clip-rule:evenodd;stroke-linejoin:round;stroke-miterlimit:1.41421;"><g><path d="M77.771,23.709c-7.695,-7.328 -17.789,-10.992 -27.88,-10.992c-10.09,0 -20.176,3.664 -27.879,10.992c-15.391,14.648 -15.391,38.414 0,53.055c7.703,7.336 17.789,11 27.879,11c10.091,0 20.185,-3.664 27.88,-11c15.391,-14.641 15.391,-38.407 0,-53.055ZM75.154,74.287c-6.746,6.414 -15.719,9.953 -25.263,9.953c-6.254,0 -18.512,-3.539 -25.266,-9.953c-13.926,-13.266 -13.926,-34.828 0,-48.086c6.754,-6.422 15.727,-9.969 25.266,-9.969c9.544,0 18.517,3.547 25.267,9.969c6.746,6.422 10.465,14.961 10.465,24.039c0,9.086 -3.719,17.625 -10.469,24.047Z" style="fill:#7f7f7f;fill-rule:nonzero;stroke-width:3px;stroke:#7f7f7f;"/><path d="M55.654,35.787c0,3.031 -2.582,5.484 -5.763,5.484c-3.18,0 -5.758,-2.453 -5.758,-5.484c0,-3.023 2.578,-5.477 5.758,-5.477c3.181,0.001 5.763,2.454 5.763,5.477ZM44.634,70.178l10.524,0l0,-24.758l-10.524,0l0,24.758Z" style="fill:#7f7f7f;fill-rule:nonzero;stroke-width:1px;stroke:#7f7f7f;"/></g></svg>