<svg viewBox="0 0 341 195" version="1.1" id="site-logo" xmlns="http://www.w3.org/2000/svg" xmlns:xlink="http://www.w3.org/1999/xlink" xml:space="preserve" style="fill-rule:evenodd;clip-rule:evenodd;stroke-linejoin:round;stroke-miterlimit:1.41421;">
    <g>
        <g>
            <g transform="matrix(1,0,0,1,-31.1293,-22.5019)">
                <path d="M154.05,72.419C154.05,64.892 148.673,58.709 138.996,58.709C127.437,58.709 117.76,67.849 102.169,93.924L101.094,93.924L101.094,58.978L62.922,67.849L62.384,75.107L73.406,76.72C80.395,78.601 81.739,80.214 81.739,92.58L81.739,168.654C81.739,171.342 79.857,172.417 75.019,172.686L64.266,173.761L63.46,182.901L123.405,182.901L122.599,173.761L108.351,172.686C102.169,172.417 101.094,171.073 101.094,168.923L101.094,108.44C107.814,94.999 120.179,82.634 128.512,77.526C130.932,82.096 135.77,86.128 141.415,86.128C149.48,86.128 154.05,79.946 154.05,72.419Z"/>
                <path d="M355.391,63.01L307.273,63.01L308.08,71.881L316.413,73.225C324.746,74.3 325.015,78.601 322.327,88.279L299.747,162.202L270.715,81.021C269.102,76.182 271.521,73.763 276.091,73.225L284.693,71.881L285.499,63.01L230.93,63.01L231.737,71.881L240.07,73.763C246.253,74.569 248.134,75.913 250.285,81.558L254.317,92.849L228.242,161.665L201.092,81.021C199.479,76.451 201.898,73.763 206.199,73.225L215.07,71.881L215.877,63.01L162.114,63.01L162.921,72.15L170.985,73.494C176.63,74.3 178.512,75.913 180.393,81.558L215.877,184.783L229.049,184.783L259.962,106.558L289.263,184.783L302.435,184.783L333.617,88.01C337.649,76.182 339.531,74.3 346.251,73.225L354.584,71.881L355.391,63.01Z"/>
            </g>
        </g>
    </g>
</svg>
