<?xml version="1.0" encoding="utf-8"?>
<!-- Generator: Adobe Illustrator 19.1.0, SVG Export Plug-In . SVG Version: 6.00 Build 0)  -->
<svg version="1.1" id="command-line-icon" xmlns="http://www.w3.org/2000/svg" xmlns:xlink="http://www.w3.org/1999/xlink" x="0px" y="0px"
	 viewBox="0 0 135.9 86.9" style="enable-background:new 0 0 135.9 86.9;" xml:space="preserve">
<style type="text/css">
	.stcl0{stroke:#000000;stroke-miterlimit:10;}
	.stcl1{fill:#333333;stroke:#000000;stroke-miterlimit:10;}
	.stcl2{fill:#FFFFFF;}
	.stcl3{font-family:'MyriadPro-Bold';}
	.stcl4{font-size:75.8878px;}
</style>
<g>
	<path class="stcl0" d="M119.4,86.4H16.5c-8.8,0-16-7.2-16-16V16.5c0-8.8,7.2-16,16-16h102.9c8.8,0,16,7.2,16,16v53.9
		C135.4,79.3,128.2,86.4,119.4,86.4z"/>
	<path class="stcl1" d="M120.7,83.8H15.2c-6.3,0-11.4-5.1-11.4-11.4V14.4C3.8,8.1,8.9,3,15.2,3h105.5c6.3,0,11.4,5.1,11.4,11.4v57.9
		C132.1,78.7,127,83.8,120.7,83.8z"/>
	<text transform="matrix(1 0 0 1 6.7091 64.7724)" class="stcl2 stcl3 stcl4">&gt;_</text>
</g>
</svg>
